<svg id="Layer_1" data-name="Layer 1" xmlns="http://www.w3.org/2000/svg" viewBox="0 0 1671.88 1296"><defs><style>.cls-1{fill:#ff4500;}.cls-2{fill:#0a0167;}</style></defs><title>Icon</title><path class="cls-1" d="M1105.49,1185.67l-139.25,289H856.53L966.24,1211H894.51V983.12h211Zm0-432.52h-211V525.29h211Z" transform="translate(-164.06 -352)"/><path class="cls-2" d="M511.91,352.09c-130.2.49-213.79,83.88-214.51,214.76-.53,97.09.26,194.19-.27,291.28-.26,47.19-23.13,70.1-69.73,71.59-20.36.65-40.75.11-63.34.11v140.34c22.59,0,43-.54,63.34.11,46.6,1.49,69.47,24.4,69.73,71.59.53,97.09-.26,194.19.27,291.28.72,130.89,84.31,214.27,214.51,214.76,46.56.18,93.13,0,143.33,0V1508.81c-46.47,0-91.45.09-136.44,0-61.37-.14-82-20.51-82.12-81.49-.16-88.49-1.24-177,.37-265.46,1.06-58.51-9.54-112.41-50.3-161.84,40.76-49.43,51.36-103.33,50.3-161.84-1.61-88.46-.53-177-.37-265.46.11-61,20.75-81.35,82.12-81.49,21.87,0,78.59-.06,136.44,0V352C594.87,352,535.1,352,511.91,352.09Z" transform="translate(-164.06 -352)"/><path class="cls-2" d="M1488.09,352.09c130.2.49,213.79,83.88,214.51,214.76.53,97.09-.26,194.19.27,291.28.26,47.19,23.13,70.1,69.73,71.59,20.36.65,40.75.11,63.34.11v140.34c-22.59,0-43-.54-63.34.11-46.6,1.49-69.47,24.4-69.73,71.59-.53,97.09.26,194.19-.27,291.28-.72,130.89-84.31,214.27-214.51,214.76-46.56.18-93.13,0-143.33,0V1508.81c46.47,0,91.45.09,136.44,0,61.37-.14,82-20.51,82.12-81.49.16-88.49,1.24-177-.37-265.46-1.06-58.51,9.54-112.41,50.3-161.84-40.76-49.43-51.36-103.33-50.3-161.84,1.61-88.46.53-177,.37-265.46-.11-61-20.75-81.35-82.12-81.49-21.87,0-78.59-.06-136.44,0V352C1405.13,352,1464.9,352,1488.09,352.09Z" transform="translate(-164.06 -352)"/></svg>